# xmcd
#
# Track frame offsets: 
#        150
#        14904
#        27614
#        40470
#        61237
#        80105
#        99015
#        110084
#        123019
#        140737
#        157377
#        173353
#        187039
#
# Disc length: 2684 seconds
#
# Revision: 1
# Processed by: cddbd v1.5.2PL0 Copyright (c) Steve Scherf et al.
# Submitted via: ExactAudioCopy v0.95b4
#
DISCID=b90a7a0d
DTITLE=R.L. Burnside - My Black Name A-Ringin'
DYEAR=1900
DGENRE=Blues
TTITLE0=Goin' Down South
TTITLE1=Two Trains Runnin'
TTITLE2=Sat Down On My Bed and Cried
TTITLE3=Nine Days In Jail
TTITLE4=Long Haired Doney
TTITLE5=Hobo Blues
TTITLE6=My Black Name A-Ringin'
TTITLE7=Catfish Blues
TTITLE8=See My Jumper
TTITLE9=Peach Tree Blues
TTITLE10=Goin' Away Blues
TTITLE11=Poor Boy
TTITLE12=Tom Wilson's Place
EXTD=
EXTT0=
EXTT1=
EXTT2=
EXTT3=
EXTT4=
EXTT5=
EXTT6=
EXTT7=
EXTT8=
EXTT9=
EXTT10=
EXTT11=
EXTT12=
PLAYORDER=
